<svg width="24" height="24" viewBox="0 0 24 24" fill="none" xmlns="http://www.w3.org/2000/svg">
<path d="M12 11.6719C12.4401 11.6719 12.7969 11.3151 12.7969 10.875C12.7969 10.4349 12.4401 10.0781 12 10.0781C11.5599 10.0781 11.2031 10.4349 11.2031 10.875C11.2031 11.3151 11.5599 11.6719 12 11.6719Z" fill="#29D1A6"/>
<path d="M17.25 11.5781C16.8617 11.5781 16.5469 11.2633 16.5469 10.875C16.5469 10.4867 16.8617 10.1719 17.25 10.1719H21.828C22.4505 9.45572 22.8281 8.52141 22.8281 7.5C22.8281 5.47312 21.3417 3.78703 19.402 3.47391C19.2684 2.62922 18.8756 1.84687 18.2634 1.2225C17.49 0.434063 16.4639 0 15.375 0C14.3846 0 13.4468 0.360141 12.7031 1.01841V5.625C12.7031 6.01331 12.3883 6.32812 12 6.32812C11.6117 6.32812 11.2969 6.01331 11.2969 5.625V1.01841C10.5532 0.360141 9.61542 0 8.625 0C7.53609 0 6.51 0.434063 5.73656 1.2225C5.12437 1.84687 4.73156 2.62922 4.59797 3.47391C2.65828 3.78703 1.17188 5.47312 1.17188 7.5C1.17188 8.52141 1.54955 9.45572 2.17205 10.1719H6.75C7.13831 10.1719 7.45312 10.4867 7.45312 10.875C7.45312 11.2633 7.13831 11.5781 6.75 11.5781H2.17205C1.54955 12.2943 1.17188 13.2286 1.17188 14.25C1.17188 16.2773 2.65828 17.9634 4.59891 18.2761C4.91156 20.2167 6.59766 21.7031 8.625 21.7031C9.64641 21.7031 10.5807 21.3255 11.2969 20.703V23.2969C11.2969 23.685 11.6119 24 12 24C12.3881 24 12.7031 23.685 12.7031 23.2969V20.703C13.4193 21.3255 14.3536 21.7031 15.375 21.7031C17.4023 21.7031 19.0884 20.2167 19.4011 18.2761C21.3417 17.9634 22.8281 16.2773 22.8281 14.25C22.8281 13.2286 22.4505 12.2943 21.828 11.5781H17.25ZM12.7031 20.7028H11.2969V16.125C11.2969 15.7367 11.6117 15.4219 12 15.4219C12.3883 15.4219 12.7031 15.7367 12.7031 16.125V20.7028ZM14.2031 10.875C14.2031 11.2264 14.12 11.5586 13.973 11.8537L15.8722 13.7528C16.1467 14.0274 16.1467 14.4726 15.8722 14.7472C15.7349 14.8845 15.555 14.9531 15.375 14.9531C15.195 14.9531 15.0151 14.8845 14.8778 14.7472L12.9787 12.848C12.6836 12.995 12.3514 13.0781 12 13.0781C11.6486 13.0781 11.3164 12.995 11.0213 12.848L9.1222 14.7472C8.98491 14.8845 8.80495 14.9531 8.625 14.9531C8.44505 14.9531 8.26509 14.8845 8.12784 14.7472C7.85325 14.4726 7.85325 14.0274 8.12784 13.7528L10.027 11.8537C9.87998 11.5586 9.79688 11.2264 9.79688 10.875C9.79688 10.5236 9.87998 10.1914 10.027 9.89634L8.12784 7.9972C7.85325 7.72261 7.85325 7.27744 8.12784 7.00284C8.40239 6.72825 8.84761 6.72825 9.1222 7.00284L11.0213 8.90198C11.3164 8.75498 11.6486 8.67188 12 8.67188C12.3514 8.67188 12.6836 8.75498 12.9787 8.90198L14.8778 7.00284C15.1523 6.72825 15.5976 6.72825 15.8722 7.00284C16.1467 7.27744 16.1467 7.72261 15.8722 7.9972L13.973 9.89634C14.12 10.1914 14.2031 10.5236 14.2031 10.875Z" fill="#29D1A6"/>
</svg>
